<?xml version="1.0" encoding="UTF-8"?>
<!-- Generator: Adobe Illustrator 26.5.0, SVG Export Plug-In . SVG Version: 6.00 Build 0)  -->
<svg version="1.1" id="Capa_1" xmlns="http://www.w3.org/2000/svg" xmlns:xlink="http://www.w3.org/1999/xlink" x="0px" y="0px" viewBox="0 0 375 150" style="enable-background:new 0 0 375 150;" xml:space="preserve">
<style type="text/css">
	.st0{fill:none;stroke:#1D1D1B;stroke-miterlimit:10;}
</style>
<g>
	<g>
		<line class="st0" x1="257.8" y1="29.25" x2="241.92" y2="13.37"/>
		<line class="st0" x1="271.94" y1="29.25" x2="287.82" y2="13.37"/>
		<line class="st0" x1="241.92" y1="59.26" x2="257.8" y2="43.38"/>
		<line class="st0" x1="287.82" y1="59.26" x2="271.94" y2="43.38"/>
	</g>
	<g>
		<line class="st0" x1="257.8" y1="106.62" x2="241.92" y2="90.74"/>
		<line class="st0" x1="271.94" y1="106.62" x2="287.82" y2="90.74"/>
		<line class="st0" x1="241.92" y1="136.63" x2="257.8" y2="120.75"/>
		<line class="st0" x1="287.82" y1="136.63" x2="271.94" y2="120.75"/>
	</g>
	<g>
		<line class="st0" x1="180.43" y1="29.25" x2="164.55" y2="13.37"/>
		<line class="st0" x1="194.57" y1="29.25" x2="210.45" y2="13.37"/>
		<line class="st0" x1="164.55" y1="59.26" x2="180.43" y2="43.38"/>
		<line class="st0" x1="210.45" y1="59.26" x2="194.57" y2="43.38"/>
	</g>
	<g>
		<line class="st0" x1="180.43" y1="106.62" x2="164.55" y2="90.74"/>
		<line class="st0" x1="194.57" y1="106.62" x2="210.45" y2="90.74"/>
		<line class="st0" x1="164.55" y1="136.63" x2="180.43" y2="120.75"/>
		<line class="st0" x1="210.45" y1="136.63" x2="194.57" y2="120.75"/>
	</g>
	<g>
		<line class="st0" x1="103.06" y1="29.25" x2="87.18" y2="13.37"/>
		<line class="st0" x1="117.2" y1="29.25" x2="133.08" y2="13.37"/>
		<line class="st0" x1="87.18" y1="59.26" x2="103.06" y2="43.38"/>
		<line class="st0" x1="133.08" y1="59.26" x2="117.2" y2="43.38"/>
	</g>
	<g>
		<line class="st0" x1="103.06" y1="106.62" x2="87.18" y2="90.74"/>
		<line class="st0" x1="117.2" y1="106.62" x2="133.08" y2="90.74"/>
		<line class="st0" x1="87.18" y1="136.63" x2="103.06" y2="120.75"/>
		<line class="st0" x1="133.08" y1="136.63" x2="117.2" y2="120.75"/>
	</g>
	<g>
		<line class="st0" x1="25.69" y1="29.25" x2="9.81" y2="13.37"/>
		<line class="st0" x1="39.83" y1="29.25" x2="55.7" y2="13.37"/>
		<line class="st0" x1="9.81" y1="59.26" x2="25.69" y2="43.38"/>
		<line class="st0" x1="55.7" y1="59.26" x2="39.83" y2="43.38"/>
	</g>
	<g>
		<line class="st0" x1="25.69" y1="106.62" x2="9.81" y2="90.74"/>
		<line class="st0" x1="39.83" y1="106.62" x2="55.7" y2="90.74"/>
		<line class="st0" x1="9.81" y1="136.63" x2="25.69" y2="120.75"/>
		<line class="st0" x1="55.7" y1="136.63" x2="39.83" y2="120.75"/>
	</g>
	<g>
		<line class="st0" x1="335.17" y1="29.25" x2="319.3" y2="13.37"/>
		<line class="st0" x1="349.31" y1="29.25" x2="365.19" y2="13.37"/>
		<line class="st0" x1="319.3" y1="59.26" x2="335.17" y2="43.38"/>
		<line class="st0" x1="365.19" y1="59.26" x2="349.31" y2="43.38"/>
	</g>
	<g>
		<line class="st0" x1="335.17" y1="106.62" x2="319.3" y2="90.74"/>
		<line class="st0" x1="349.31" y1="106.62" x2="365.19" y2="90.74"/>
		<line class="st0" x1="319.3" y1="136.63" x2="335.17" y2="120.75"/>
		<line class="st0" x1="365.19" y1="136.63" x2="349.31" y2="120.75"/>
	</g>
</g>
</svg>